<?xml version="1.0" encoding="UTF-8" standalone="no"?>
<!-- Created with Inkscape (http://www.inkscape.org/) -->

<svg
   width="512"
   height="512"
   viewBox="0 0 512 512"
   version="1.1"
   id="svg5"
   xml:space="preserve"
   inkscape:export-filename="растровый.png"
   inkscape:export-xdpi="96"
   inkscape:export-ydpi="96"
   inkscape:version="1.2 (1:1.2.1+202207142221+cd75a1ee6d)"
   sodipodi:docname="512_template.svg"
   xmlns:inkscape="http://www.inkscape.org/namespaces/inkscape"
   xmlns:sodipodi="http://sodipodi.sourceforge.net/DTD/sodipodi-0.dtd"
   xmlns="http://www.w3.org/2000/svg"
   xmlns:svg="http://www.w3.org/2000/svg"><sodipodi:namedview
     id="namedview7"
     pagecolor="#505050"
     bordercolor="#eeeeee"
     borderopacity="1"
     inkscape:showpageshadow="0"
     inkscape:pageopacity="0"
     inkscape:pagecheckerboard="0"
     inkscape:deskcolor="#505050"
     inkscape:document-units="px"
     showgrid="false"
     inkscape:zoom="2.4433594"
     inkscape:cx="225.91847"
     inkscape:cy="232.05755"
     inkscape:window-width="3840"
     inkscape:window-height="2096"
     inkscape:window-x="0"
     inkscape:window-y="0"
     inkscape:window-maximized="1"
     inkscape:current-layer="svg5"><inkscape:page
       x="0"
       y="0"
       width="512"
       height="512"
       id="page1265" /><inkscape:page
       x="522"
       y="0"
       width="144"
       height="144"
       id="page1267" /></sodipodi:namedview><defs
     id="defs2"><clipPath
       clipPathUnits="userSpaceOnUse"
       id="clipPath1083"><path
         d="M 0,108 H 108 V 0 H 0 Z"
         id="path1081" /></clipPath><clipPath
       clipPathUnits="userSpaceOnUse"
       id="clipPath1093"><path
         d="M 0,108 H 108 V 0 H 0 Z"
         id="path1091" /></clipPath><clipPath
       clipPathUnits="userSpaceOnUse"
       id="clipPath1101"><path
         d="M -0.0706177,108.071 H 108.071 V -0.0706635 H -0.0706177 Z"
         id="path1099" /></clipPath><clipPath
       clipPathUnits="userSpaceOnUse"
       id="clipPath1105"><path
         d="M -0.0352631,108.035 H 108.035 V -0.0353088 H -0.0352631 Z"
         id="path1103" /></clipPath><clipPath
       clipPathUnits="userSpaceOnUse"
       id="clipPath1109"><path
         d="M -0.0352631,108.035 H 108.035 V -0.0353088 H -0.0352631 Z"
         id="path1107" /></clipPath><clipPath
       clipPathUnits="userSpaceOnUse"
       id="clipPath1153"><path
         d="M 28,80 H 80 V 28 H 28 Z"
         id="path1151" /></clipPath><clipPath
       clipPathUnits="userSpaceOnUse"
       id="clipPath1169"><path
         d="M 36,72 H 72 V 36 H 36 Z"
         id="path1167" /></clipPath><clipPath
       clipPathUnits="userSpaceOnUse"
       id="clipPath1185"><path
         d="M 27.9,72.1 H 80.1 V 35.9 H 27.9 Z"
         id="path1183" /></clipPath><clipPath
       clipPathUnits="userSpaceOnUse"
       id="clipPath1201"><path
         d="M 35.9,80.1 H 72.1 V 27.9 H 35.9 Z"
         id="path1199" /></clipPath><clipPath
       clipPathUnits="userSpaceOnUse"
       id="clipPath1217"><path
         d="M 31.9,76.1 H 76.1 V 31.9 H 31.9 Z"
         id="path1215" /></clipPath><clipPath
       clipPathUnits="userSpaceOnUse"
       id="clipPath1233"><path
         d="M 18,90 H 90 V 18 H 18 Z"
         id="path1231" /></clipPath></defs><g
     inkscape:label="Слой 1"
     inkscape:groupmode="layer"
     id="layer1"
     style="display:inline" /><g
     id="g1087"
     transform="matrix(4.7407407,0,0,-4.7407407,0,512)"
     style="display:inline"><g
       id="g1089"
       clip-path="url(#clipPath1093)"
       style="display:inline"><g
         id="g1095"><g
           id="g1097" /><g
           id="g1145"><g
             clip-path="url(#clipPath1101)"
             opacity="0.100006"
             id="g1143"><g
               id="g1121"><g
                 id="g1111" /><g
                 id="g1119"><g
                   clip-path="url(#clipPath1105)"
                   opacity="0.399994"
                   id="g1117"><g
                     transform="translate(1e-4,108)"
                     id="g1115"><path
                       d="M 0,0 108,-108"
                       style="fill:none;stroke:#000000;stroke-width:0.1;stroke-linecap:butt;stroke-linejoin:miter;stroke-miterlimit:10;stroke-dasharray:none;stroke-opacity:1"
                       id="path1113" /></g></g></g></g><g
               id="g1133"><g
                 id="g1123" /><g
                 id="g1131"><g
                   clip-path="url(#clipPath1109)"
                   opacity="0.100006"
                   id="g1129"><g
                     transform="translate(108.0001,108)"
                     id="g1127"><path
                       d="M 0,0 -108,-108"
                       style="fill:none;stroke:#000000;stroke-width:0.1;stroke-linecap:butt;stroke-linejoin:miter;stroke-miterlimit:10;stroke-dasharray:none;stroke-opacity:1"
                       id="path1125" /></g></g></g></g><g
               transform="translate(1e-4,108)"
               id="g1137"><path
                 d="M 0,0 108,-108"
                 style="fill:none;stroke:#000000;stroke-width:0.2;stroke-linecap:butt;stroke-linejoin:miter;stroke-miterlimit:10;stroke-dasharray:none;stroke-opacity:1"
                 id="path1135" /></g><g
               transform="translate(108.0001,108)"
               id="g1141"><path
                 d="M 0,0 -108,-108"
                 style="fill:none;stroke:#000000;stroke-width:0.2;stroke-linecap:butt;stroke-linejoin:miter;stroke-miterlimit:10;stroke-dasharray:none;stroke-opacity:1"
                 id="path1139" /></g></g></g></g><g
         id="g1147"><g
           id="g1149" /><g
           id="g1161"><g
             clip-path="url(#clipPath1153)"
             opacity="0.300003"
             id="g1159"><g
               transform="translate(54,80)"
               id="g1157"><path
                 d="m 0,0 c -14.359,0 -26,-11.641 -26,-26 0,-14.359 11.641,-26 26,-26 14.359,0 26,11.641 26,26 C 26,-11.641 14.359,0 0,0 m 0,-0.3 c 14.171,0 25.7,-11.529 25.7,-25.7 0,-14.171 -11.529,-25.7 -25.7,-25.7 -14.171,0 -25.7,11.529 -25.7,25.7 0,14.171 11.529,25.7 25.7,25.7"
                 style="fill:#000000;fill-opacity:1;fill-rule:nonzero;stroke:none"
                 id="path1155" /></g></g></g></g><g
         id="g1163"><g
           id="g1165" /><g
           id="g1177"><g
             clip-path="url(#clipPath1169)"
             opacity="0.300003"
             id="g1175"><g
               transform="translate(54,72)"
               id="g1173"><path
                 d="m 0,0 c -9.941,0 -18,-8.059 -18,-18 0,-9.941 8.059,-18 18,-18 9.941,0 18,8.059 18,18 C 18,-8.059 9.941,0 0,0 m 0,-0.3 c 9.76,0 17.7,-7.94 17.7,-17.7 0,-9.76 -7.94,-17.7 -17.7,-17.7 -9.76,0 -17.7,7.94 -17.7,17.7 0,9.76 7.94,17.7 17.7,17.7"
                 style="fill:#000000;fill-opacity:1;fill-rule:nonzero;stroke:none"
                 id="path1171" /></g></g></g></g><g
         id="g1179"><g
           id="g1181" /><g
           id="g1193"><g
             clip-path="url(#clipPath1185)"
             opacity="0.100006"
             id="g1191"><g
               transform="translate(78,36)"
               id="g1189"><path
                 d="m 0,0 h -48 c -1.105,0 -2,0.895 -2,2 v 32 c 0,1.105 0.895,2 2,2 H 0 c 1.105,0 2,-0.895 2,-2 V 2 C 2,0.895 1.105,0 0,0 Z"
                 style="fill:none;stroke:#000000;stroke-width:0.2;stroke-linecap:butt;stroke-linejoin:miter;stroke-miterlimit:10;stroke-dasharray:none;stroke-opacity:1"
                 id="path1187" /></g></g></g></g><g
         id="g1195"><g
           id="g1197" /><g
           id="g1209"><g
             clip-path="url(#clipPath1201)"
             opacity="0.100006"
             id="g1207"><g
               transform="translate(36,30)"
               id="g1205"><path
                 d="m 0,0 v 48 c 0,1.105 0.895,2 2,2 h 32 c 1.105,0 2,-0.895 2,-2 V 0 c 0,-1.105 -0.895,-2 -2,-2 H 2 C 0.895,-2 0,-1.105 0,0 Z"
                 style="fill:none;stroke:#000000;stroke-width:0.2;stroke-linecap:butt;stroke-linejoin:miter;stroke-miterlimit:10;stroke-dasharray:none;stroke-opacity:1"
                 id="path1203" /></g></g></g></g><g
         id="g1211"
         style="display:inline"><g
           id="g1213" /><g
           id="g1225"><g
             clip-path="url(#clipPath1217)"
             opacity="0.100006"
             id="g1223"><g
               transform="translate(74,32)"
               id="g1221"><path
                 d="m 0,0 h -40 c -1.1,0 -2,0.9 -2,2 v 40 c 0,1.1 0.9,2 2,2 H 0 c 1.1,0 2,-0.9 2,-2 V 2 C 2,0.9 1.1,0 0,0 Z"
                 style="fill:none;stroke:#000000;stroke-width:0.2;stroke-linecap:butt;stroke-linejoin:miter;stroke-miterlimit:10;stroke-dasharray:none;stroke-opacity:1"
                 id="path1219" /></g></g></g></g><g
         id="g1227"
         style="display:inline"><g
           id="g1229" /><g
           id="g1241"><g
             clip-path="url(#clipPath1233)"
             opacity="0.600006"
             id="g1239"><g
               transform="translate(54,90)"
               id="g1237"><path
                 d="m 0,0 c -19.882,0 -36,-16.118 -36,-36 0,-19.882 16.118,-36 36,-36 19.882,0 36,16.118 36,36 C 36,-16.118 19.882,0 0,0 m 0,-0.6 c 19.52,0 35.4,-15.88 35.4,-35.4 0,-19.52 -15.88,-35.4 -35.4,-35.4 -19.52,0 -35.4,15.88 -35.4,35.4 0,19.52 15.88,35.4 35.4,35.4"
                 style="fill:#00b28e;fill-opacity:1;fill-rule:nonzero;stroke:none"
                 id="path1235" /></g></g></g></g></g></g></svg>
